<?xml version="1.0" encoding="UTF-8"?>
<svg id="Layer_2" data-name="Layer 2" xmlns="http://www.w3.org/2000/svg" viewBox="0 0 552.87 552.87">
  <defs>
    <style>
      .cls-1 {
        fill: #fefaef;
      }

      .cls-1, .cls-2 {
        stroke-width: 0px;
      }

      .cls-2 {
        fill: #1e2629;
      }
    </style>
  </defs>
  <g id="Layer_1-2" data-name="Layer 1">
    <g>
      <path class="cls-1" d="M552.87,226.37v100.13c0,125.02-101.35,226.37-226.37,226.37h-100.13c-.92,0-1.81,0-2.73-.03-42.03-.47-81.27-12.43-114.81-32.85C43.58,480.28,0,408.47,0,326.5v-100.13C0,101.35,101.35,0,226.37,0h100.13c83.33,0,156.14,45.03,195.44,112.09,19.66,33.54,30.93,72.59,30.93,114.28Z"/>
      <g>
        <path class="cls-2" d="M223.48,112.09c-63.3.08-114.65,51.45-114.65,114.81v293.1C43.58,480.28,0,408.47,0,326.5v-100.13C0,101.35,101.35,0,226.37,0h100.13c83.33,0,156.14,45.03,195.44,112.09H223.48Z"/>
        <path class="cls-2" d="M552.87,226.9v99.6c0,125.02-101.35,226.37-226.37,226.37h-100.13l-2.73-2.73v-108.28h98.24c63.41,0,114.81-51.43,114.81-114.84h-213.05v-74.41c0-14.2,11.51-25.72,25.72-25.72h303.51Z"/>
      </g>
    </g>
  </g>
</svg>